{
    "patcher": {
        "fileversion": 1,
        "appversion": {
            "major": 9,
            "minor": 1,
            "revision": 0,
            "architecture": "x64",
            "modernui": 1
        },
        "classnamespace": "box",
        "rect": [ 34.0, 100.0, 899.0, 788.0 ],
        "subpatcher_template": "js_default",
        "boxes": [
            {
                "box": {
                    "id": "obj-45",
                    "maxclass": "button",
                    "numinlets": 1,
                    "numoutlets": 1,
                    "outlettype": [ "bang" ],
                    "parameter_enable": 0,
                    "patching_rect": [ 287.0, 51.0, 24.0, 24.0 ]
                }
            },
            {
                "box": {
                    "id": "obj-38",
                    "maxclass": "message",
                    "numinlets": 2,
                    "numoutlets": 1,
                    "outlettype": [ "" ],
                    "patching_rect": [ 169.0, 197.0, 39.0, 22.0 ],
                    "text": "dump"
                }
            },
            {
                "box": {
                    "id": "obj-10",
                    "maxclass": "comment",
                    "numinlets": 1,
                    "numoutlets": 0,
                    "patching_rect": [ 491.0, 77.0, 179.0, 20.0 ],
                    "text": "show the menu with a message"
                }
            },
            {
                "box": {
                    "id": "obj-34",
                    "maxclass": "message",
                    "numinlets": 2,
                    "numoutlets": 1,
                    "outlettype": [ "" ],
                    "patching_rect": [ 452.0, 197.0, 169.0, 22.0 ],
                    "text": "checksymbol \"three halves\" -1"
                }
            },
            {
                "box": {
                    "id": "obj-14",
                    "maxclass": "message",
                    "numinlets": 2,
                    "numoutlets": 1,
                    "outlettype": [ "" ],
                    "patching_rect": [ 169.0, 166.0, 72.0, 22.0 ],
                    "text": "clearchecks"
                }
            },
            {
                "box": {
                    "id": "obj-12",
                    "maxclass": "message",
                    "numinlets": 2,
                    "numoutlets": 1,
                    "outlettype": [ "" ],
                    "patching_rect": [ 169.0, 142.0, 87.0, 22.0 ],
                    "text": "checkitem 3 -1"
                }
            },
            {
                "box": {
                    "attr": "checkmode",
                    "id": "obj-6",
                    "maxclass": "attrui",
                    "numinlets": 1,
                    "numoutlets": 1,
                    "outlettype": [ "" ],
                    "parameter_enable": 0,
                    "patching_rect": [ 452.0, 173.0, 218.0, 22.0 ]
                }
            },
            {
                "box": {
                    "id": "obj-25",
                    "maxclass": "comment",
                    "numinlets": 1,
                    "numoutlets": 0,
                    "patching_rect": [ 415.0, 352.0, 150.0, 20.0 ],
                    "text": "set items using dict"
                }
            },
            {
                "box": {
                    "id": "obj-13",
                    "maxclass": "button",
                    "numinlets": 1,
                    "numoutlets": 1,
                    "outlettype": [ "bang" ],
                    "parameter_enable": 0,
                    "patching_rect": [ 387.0, 350.0, 24.0, 24.0 ]
                }
            },
            {
                "box": {
                    "code": "{\n    \"items\": [\r\n        67,\r\n        \"6 7\",\r\n        \"six seven\", \r\n        \"eight\", \r\n        \"-\",  \r\n        \"nine\",\r\n        \"ten\", \r\n        \"(eleven)\", \r\n        \"<separator>\",\r\n        \"twelve\" \r\n    ]\n}",
                    "fontface": 0,
                    "fontname": "<Monospaced>",
                    "fontsize": 12.0,
                    "id": "obj-11",
                    "maxclass": "dict.codebox",
                    "numinlets": 2,
                    "numoutlets": 5,
                    "outlettype": [ "dictionary", "", "", "", "" ],
                    "patching_rect": [ 387.0, 382.0, 230.0, 245.0 ],
                    "saved_object_attributes": {
                        "legacy": 1,
                        "parameter_enable": 0,
                        "parameter_mappable": 0
                    }
                }
            },
            {
                "box": {
                    "id": "obj-9",
                    "maxclass": "comment",
                    "numinlets": 1,
                    "numoutlets": 0,
                    "patching_rect": [ 209.0, 81.0, 150.0, 20.0 ],
                    "text": "(no output, no select)"
                }
            },
            {
                "box": {
                    "id": "obj-8",
                    "maxclass": "comment",
                    "numinlets": 1,
                    "numoutlets": 0,
                    "patching_rect": [ 144.0, 91.0, 63.0, 20.0 ],
                    "text": "separator"
                }
            },
            {
                "box": {
                    "id": "obj-7",
                    "maxclass": "comment",
                    "numinlets": 1,
                    "numoutlets": 0,
                    "patching_rect": [ 144.0, 67.0, 58.0, 20.0 ],
                    "text": "disabled"
                }
            },
            {
                "box": {
                    "id": "obj-5",
                    "maxclass": "message",
                    "numinlets": 2,
                    "numoutlets": 1,
                    "outlettype": [ "" ],
                    "patching_rect": [ 110.0, 66.0, 29.5, 22.0 ],
                    "text": "1"
                }
            },
            {
                "box": {
                    "id": "obj-4",
                    "maxclass": "message",
                    "numinlets": 2,
                    "numoutlets": 1,
                    "outlettype": [ "" ],
                    "patching_rect": [ 110.0, 90.0, 29.5, 22.0 ],
                    "text": "2"
                }
            },
            {
                "box": {
                    "id": "obj-54",
                    "maxclass": "newobj",
                    "numinlets": 3,
                    "numoutlets": 0,
                    "patcher": {
                        "fileversion": 1,
                        "appversion": {
                            "major": 9,
                            "minor": 1,
                            "revision": 0,
                            "architecture": "x64",
                            "modernui": 1
                        },
                        "classnamespace": "box",
                        "rect": [ 1042.0, 100.0, 436.0, 788.0 ],
                        "subpatcher_template": "js_default",
                        "boxes": [
                            {
                                "box": {
                                    "id": "obj-7",
                                    "maxclass": "newobj",
                                    "numinlets": 1,
                                    "numoutlets": 1,
                                    "outlettype": [ "" ],
                                    "patching_rect": [ 131.0, 147.0, 71.0, 22.0 ],
                                    "text": "prepend o3"
                                }
                            },
                            {
                                "box": {
                                    "id": "obj-6",
                                    "maxclass": "newobj",
                                    "numinlets": 1,
                                    "numoutlets": 1,
                                    "outlettype": [ "" ],
                                    "patching_rect": [ 90.5, 123.0, 71.0, 22.0 ],
                                    "text": "prepend o2"
                                }
                            },
                            {
                                "box": {
                                    "id": "obj-5",
                                    "maxclass": "newobj",
                                    "numinlets": 1,
                                    "numoutlets": 1,
                                    "outlettype": [ "" ],
                                    "patching_rect": [ 50.0, 100.0, 71.0, 22.0 ],
                                    "text": "prepend o1"
                                }
                            },
                            {
                                "box": {
                                    "id": "obj-4",
                                    "maxclass": "newobj",
                                    "numinlets": 1,
                                    "numoutlets": 0,
                                    "patching_rect": [ 50.0, 178.0, 77.0, 22.0 ],
                                    "text": "print ll_menu"
                                }
                            },
                            {
                                "box": {
                                    "comment": "",
                                    "id": "obj-47",
                                    "index": 1,
                                    "maxclass": "inlet",
                                    "numinlets": 0,
                                    "numoutlets": 1,
                                    "outlettype": [ "" ],
                                    "patching_rect": [ 50.0, 40.0, 30.0, 30.0 ]
                                }
                            },
                            {
                                "box": {
                                    "comment": "",
                                    "id": "obj-48",
                                    "index": 2,
                                    "maxclass": "inlet",
                                    "numinlets": 0,
                                    "numoutlets": 1,
                                    "outlettype": [ "" ],
                                    "patching_rect": [ 90.5, 40.0, 30.0, 30.0 ]
                                }
                            },
                            {
                                "box": {
                                    "comment": "",
                                    "id": "obj-49",
                                    "index": 3,
                                    "maxclass": "inlet",
                                    "numinlets": 0,
                                    "numoutlets": 1,
                                    "outlettype": [ "" ],
                                    "patching_rect": [ 131.0, 40.0, 30.0, 30.0 ]
                                }
                            }
                        ],
                        "lines": [
                            {
                                "patchline": {
                                    "destination": [ "obj-5", 0 ],
                                    "source": [ "obj-47", 0 ]
                                }
                            },
                            {
                                "patchline": {
                                    "destination": [ "obj-6", 0 ],
                                    "source": [ "obj-48", 0 ]
                                }
                            },
                            {
                                "patchline": {
                                    "destination": [ "obj-7", 0 ],
                                    "source": [ "obj-49", 0 ]
                                }
                            },
                            {
                                "patchline": {
                                    "destination": [ "obj-4", 0 ],
                                    "source": [ "obj-5", 0 ]
                                }
                            },
                            {
                                "patchline": {
                                    "destination": [ "obj-4", 0 ],
                                    "source": [ "obj-6", 0 ]
                                }
                            },
                            {
                                "patchline": {
                                    "destination": [ "obj-4", 0 ],
                                    "source": [ "obj-7", 0 ]
                                }
                            }
                        ]
                    },
                    "patching_rect": [ 312.0, 197.0, 99.75, 22.0 ],
                    "text": "p print-outlets"
                }
            },
            {
                "box": {
                    "id": "obj-50",
                    "maxclass": "newobj",
                    "numinlets": 3,
                    "numoutlets": 0,
                    "patcher": {
                        "fileversion": 1,
                        "appversion": {
                            "major": 9,
                            "minor": 1,
                            "revision": 0,
                            "architecture": "x64",
                            "modernui": 1
                        },
                        "classnamespace": "box",
                        "rect": [ 558.0, 100.0, 436.0, 788.0 ],
                        "subpatcher_template": "js_default",
                        "boxes": [
                            {
                                "box": {
                                    "id": "obj-7",
                                    "maxclass": "newobj",
                                    "numinlets": 1,
                                    "numoutlets": 1,
                                    "outlettype": [ "" ],
                                    "patching_rect": [ 131.0, 147.0, 71.0, 22.0 ],
                                    "text": "prepend o3"
                                }
                            },
                            {
                                "box": {
                                    "id": "obj-6",
                                    "maxclass": "newobj",
                                    "numinlets": 1,
                                    "numoutlets": 1,
                                    "outlettype": [ "" ],
                                    "patching_rect": [ 90.5, 123.0, 71.0, 22.0 ],
                                    "text": "prepend o2"
                                }
                            },
                            {
                                "box": {
                                    "id": "obj-5",
                                    "maxclass": "newobj",
                                    "numinlets": 1,
                                    "numoutlets": 1,
                                    "outlettype": [ "" ],
                                    "patching_rect": [ 50.0, 100.0, 71.0, 22.0 ],
                                    "text": "prepend o1"
                                }
                            },
                            {
                                "box": {
                                    "id": "obj-4",
                                    "maxclass": "newobj",
                                    "numinlets": 1,
                                    "numoutlets": 0,
                                    "patching_rect": [ 50.0, 178.0, 72.0, 22.0 ],
                                    "text": "print umenu"
                                }
                            },
                            {
                                "box": {
                                    "comment": "",
                                    "id": "obj-47",
                                    "index": 1,
                                    "maxclass": "inlet",
                                    "numinlets": 0,
                                    "numoutlets": 1,
                                    "outlettype": [ "int" ],
                                    "patching_rect": [ 50.0, 40.0, 30.0, 30.0 ]
                                }
                            },
                            {
                                "box": {
                                    "comment": "",
                                    "id": "obj-48",
                                    "index": 2,
                                    "maxclass": "inlet",
                                    "numinlets": 0,
                                    "numoutlets": 1,
                                    "outlettype": [ "" ],
                                    "patching_rect": [ 90.5, 40.0, 30.0, 30.0 ]
                                }
                            },
                            {
                                "box": {
                                    "comment": "",
                                    "id": "obj-49",
                                    "index": 3,
                                    "maxclass": "inlet",
                                    "numinlets": 0,
                                    "numoutlets": 1,
                                    "outlettype": [ "" ],
                                    "patching_rect": [ 131.0, 40.0, 30.0, 30.0 ]
                                }
                            }
                        ],
                        "lines": [
                            {
                                "patchline": {
                                    "destination": [ "obj-5", 0 ],
                                    "source": [ "obj-47", 0 ]
                                }
                            },
                            {
                                "patchline": {
                                    "destination": [ "obj-6", 0 ],
                                    "source": [ "obj-48", 0 ]
                                }
                            },
                            {
                                "patchline": {
                                    "destination": [ "obj-7", 0 ],
                                    "source": [ "obj-49", 0 ]
                                }
                            },
                            {
                                "patchline": {
                                    "destination": [ "obj-4", 0 ],
                                    "source": [ "obj-5", 0 ]
                                }
                            },
                            {
                                "patchline": {
                                    "destination": [ "obj-4", 0 ],
                                    "source": [ "obj-6", 0 ]
                                }
                            },
                            {
                                "patchline": {
                                    "destination": [ "obj-4", 0 ],
                                    "source": [ "obj-7", 0 ]
                                }
                            }
                        ]
                    },
                    "patching_rect": [ 10.0, 197.0, 99.75, 22.0 ],
                    "text": "p print-outlets"
                }
            },
            {
                "box": {
                    "id": "obj-46",
                    "linecount": 6,
                    "maxclass": "comment",
                    "numinlets": 1,
                    "numoutlets": 0,
                    "patching_rect": [ 9.0, 403.0, 333.0, 100.0 ],
                    "text": "TODO:\n\n- dict items -- always sets as single symbol (even with space)\n- prefix_mode\n- blanksym\n- dump\n"
                }
            },
            {
                "box": {
                    "attr": "menufontsize",
                    "id": "obj-44",
                    "maxclass": "attrui",
                    "numinlets": 1,
                    "numoutlets": 1,
                    "outlettype": [ "" ],
                    "parameter_enable": 0,
                    "patching_rect": [ 452.0, 149.0, 218.0, 22.0 ]
                }
            },
            {
                "box": {
                    "id": "obj-43",
                    "maxclass": "comment",
                    "numinlets": 1,
                    "numoutlets": 0,
                    "patching_rect": [ 452.0, 55.0, 127.0, 20.0 ],
                    "text": "ll_menu only!"
                }
            },
            {
                "box": {
                    "attr": "arrow",
                    "id": "obj-41",
                    "maxclass": "attrui",
                    "numinlets": 1,
                    "numoutlets": 1,
                    "outlettype": [ "" ],
                    "parameter_enable": 0,
                    "patching_rect": [ 312.0, 270.0, 296.0, 22.0 ],
                    "text_width": 80.0
                }
            },
            {
                "box": {
                    "attr": "arrow",
                    "id": "obj-40",
                    "maxclass": "attrui",
                    "numinlets": 1,
                    "numoutlets": 1,
                    "outlettype": [ "" ],
                    "parameter_enable": 0,
                    "patching_rect": [ 6.0, 270.0, 296.0, 22.0 ],
                    "text_width": 80.0
                }
            },
            {
                "box": {
                    "attr": "blanksym",
                    "id": "obj-39",
                    "maxclass": "attrui",
                    "numinlets": 1,
                    "numoutlets": 1,
                    "outlettype": [ "" ],
                    "parameter_enable": 0,
                    "patching_rect": [ 6.0, 366.0, 296.0, 22.0 ],
                    "text_width": 80.0
                }
            },
            {
                "box": {
                    "id": "obj-37",
                    "maxclass": "comment",
                    "numinlets": 1,
                    "numoutlets": 0,
                    "patching_rect": [ 331.0, 143.0, 81.0, 20.0 ],
                    "text": "ll_menu"
                }
            },
            {
                "box": {
                    "id": "obj-36",
                    "maxclass": "comment",
                    "numinlets": 1,
                    "numoutlets": 0,
                    "patching_rect": [ 36.0, 143.0, 58.0, 20.0 ],
                    "text": "umenu"
                }
            },
            {
                "box": {
                    "attr": "prefix_mode",
                    "id": "obj-35",
                    "maxclass": "attrui",
                    "numinlets": 1,
                    "numoutlets": 1,
                    "outlettype": [ "" ],
                    "parameter_enable": 0,
                    "patching_rect": [ 6.0, 342.0, 296.0, 22.0 ],
                    "text_width": 80.0
                }
            },
            {
                "box": {
                    "attr": "prefix",
                    "id": "obj-32",
                    "maxclass": "attrui",
                    "numinlets": 1,
                    "numoutlets": 1,
                    "outlettype": [ "" ],
                    "parameter_enable": 0,
                    "patching_rect": [ 312.0, 318.0, 296.0, 22.0 ],
                    "text_width": 80.0
                }
            },
            {
                "box": {
                    "attr": "prefix",
                    "id": "obj-33",
                    "maxclass": "attrui",
                    "numinlets": 1,
                    "numoutlets": 1,
                    "outlettype": [ "" ],
                    "parameter_enable": 0,
                    "patching_rect": [ 6.0, 318.0, 296.0, 22.0 ],
                    "text_width": 80.0
                }
            },
            {
                "box": {
                    "id": "obj-31",
                    "maxclass": "message",
                    "numinlets": 2,
                    "numoutlets": 1,
                    "outlettype": [ "" ],
                    "patching_rect": [ 10.0, 11.0, 35.0, 22.0 ],
                    "text": "clear"
                }
            },
            {
                "box": {
                    "id": "obj-30",
                    "maxclass": "newobj",
                    "numinlets": 1,
                    "numoutlets": 1,
                    "outlettype": [ "" ],
                    "patching_rect": [ 9.75, 66.0, 19.0, 22.0 ],
                    "text": "t l"
                }
            },
            {
                "box": {
                    "id": "obj-29",
                    "maxclass": "message",
                    "numinlets": 2,
                    "numoutlets": 1,
                    "outlettype": [ "" ],
                    "patching_rect": [ 199.0, 11.0, 86.0, 22.0 ],
                    "text": "setsymbol one"
                }
            },
            {
                "box": {
                    "id": "obj-28",
                    "maxclass": "message",
                    "numinlets": 2,
                    "numoutlets": 1,
                    "outlettype": [ "" ],
                    "patching_rect": [ 123.0, 11.0, 71.0, 22.0 ],
                    "text": "symbol four"
                }
            },
            {
                "box": {
                    "id": "obj-27",
                    "maxclass": "message",
                    "numinlets": 2,
                    "numoutlets": 1,
                    "outlettype": [ "" ],
                    "patching_rect": [ 83.0, 11.0, 35.0, 22.0 ],
                    "text": "set 6"
                }
            },
            {
                "box": {
                    "id": "obj-26",
                    "maxclass": "message",
                    "numinlets": 2,
                    "numoutlets": 1,
                    "outlettype": [ "" ],
                    "patching_rect": [ 50.25, 11.0, 29.5, 22.0 ],
                    "text": "0"
                }
            },
            {
                "box": {
                    "attr": "pattrmode",
                    "id": "obj-24",
                    "maxclass": "attrui",
                    "numinlets": 1,
                    "numoutlets": 1,
                    "outlettype": [ "" ],
                    "parameter_enable": 0,
                    "patching_rect": [ 312.0, 294.0, 296.0, 22.0 ],
                    "text_width": 80.0
                }
            },
            {
                "box": {
                    "attr": "pattrmode",
                    "id": "obj-23",
                    "maxclass": "attrui",
                    "numinlets": 1,
                    "numoutlets": 1,
                    "outlettype": [ "" ],
                    "parameter_enable": 0,
                    "patching_rect": [ 6.0, 294.0, 296.0, 22.0 ],
                    "text_width": 80.0
                }
            },
            {
                "box": {
                    "id": "obj-22",
                    "maxclass": "message",
                    "numinlets": 2,
                    "numoutlets": 1,
                    "outlettype": [ "" ],
                    "patching_rect": [ 9.0, 517.0, 77.0, 22.0 ],
                    "text": "clientwindow"
                }
            },
            {
                "box": {
                    "id": "obj-21",
                    "maxclass": "newobj",
                    "numinlets": 1,
                    "numoutlets": 4,
                    "outlettype": [ "", "", "", "" ],
                    "patching_rect": [ 88.0, 517.0, 56.0, 22.0 ],
                    "restore": {
                        "ll_menu": [ "one" ],
                        "umenu": [ "four" ]
                    },
                    "text": "autopattr",
                    "varname": "u358001695"
                }
            },
            {
                "box": {
                    "id": "obj-20",
                    "maxclass": "newobj",
                    "numinlets": 1,
                    "numoutlets": 1,
                    "outlettype": [ "" ],
                    "patching_rect": [ 9.0, 544.0, 135.0, 22.0 ],
                    "saved_object_attributes": {
                        "client_rect": [ 1029, 101, 1429, 601 ],
                        "parameter_enable": 0,
                        "parameter_mappable": 0
                    },
                    "text": "pattrstorage",
                    "varname": "u803001596"
                }
            },
            {
                "box": {
                    "attr": "positionmode",
                    "id": "obj-19",
                    "maxclass": "attrui",
                    "numinlets": 1,
                    "numoutlets": 1,
                    "outlettype": [ "" ],
                    "parameter_enable": 0,
                    "patching_rect": [ 452.0, 125.0, 218.0, 22.0 ]
                }
            },
            {
                "box": {
                    "attr": "outputcancel",
                    "id": "obj-18",
                    "maxclass": "attrui",
                    "numinlets": 1,
                    "numoutlets": 1,
                    "outlettype": [ "" ],
                    "parameter_enable": 0,
                    "patching_rect": [ 452.0, 101.0, 218.0, 22.0 ]
                }
            },
            {
                "box": {
                    "attr": "items",
                    "id": "obj-17",
                    "maxclass": "attrui",
                    "numinlets": 1,
                    "numoutlets": 1,
                    "outlettype": [ "" ],
                    "parameter_enable": 0,
                    "patching_rect": [ 312.0, 246.0, 296.0, 22.0 ],
                    "text_width": 80.0
                }
            },
            {
                "box": {
                    "attr": "items",
                    "id": "obj-16",
                    "maxclass": "attrui",
                    "numinlets": 1,
                    "numoutlets": 1,
                    "outlettype": [ "" ],
                    "parameter_enable": 0,
                    "patching_rect": [ 6.0, 246.0, 296.0, 22.0 ],
                    "text_width": 80.0
                }
            },
            {
                "box": {
                    "id": "obj-15",
                    "maxclass": "message",
                    "numinlets": 2,
                    "numoutlets": 1,
                    "outlettype": [ "" ],
                    "patching_rect": [ 452.0, 77.0, 37.0, 22.0 ],
                    "text": "show"
                }
            },
            {
                "box": {
                    "checkmode": 0,
                    "fontface": 0,
                    "fontname": "Arial",
                    "id": "obj-2",
                    "items": [ "one", ",", "(two)", ",", "-", ",", "three", "halves", ",", "<separator>", ",", "four", ",", "five" ],
                    "maxclass": "ll_menu",
                    "numinlets": 1,
                    "numoutlets": 3,
                    "outlettype": [ "", "", "" ],
                    "outputcancel": 1,
                    "parameter_enable": 0,
                    "patching_rect": [ 312.0, 165.0, 100.0, 24.0 ],
                    "pattrmode": 1,
                    "positionmode": 1,
                    "prefix": "",
                    "varname": "ll_menu"
                }
            },
            {
                "box": {
                    "id": "obj-3",
                    "linecount": 2,
                    "maxclass": "message",
                    "numinlets": 2,
                    "numoutlets": 1,
                    "outlettype": [ "" ],
                    "patching_rect": [ 287.0, 11.0, 400.0, 35.0 ],
                    "text": "clear, append one, append (two), append -, append three halves, append <separator>, append four, append five"
                }
            },
            {
                "box": {
                    "blanksym": "",
                    "id": "obj-1",
                    "items": [ "one", ",", "(two)", ",", "-", ",", "three", "halves", ",", "<separator>", ",", "four", ",", "five" ],
                    "maxclass": "umenu",
                    "numinlets": 1,
                    "numoutlets": 3,
                    "outlettype": [ "int", "", "" ],
                    "parameter_enable": 0,
                    "patching_rect": [ 9.75, 164.0, 100.0, 22.0 ],
                    "pattrmode": 1,
                    "varname": "umenu"
                }
            }
        ],
        "lines": [
            {
                "patchline": {
                    "destination": [ "obj-50", 2 ],
                    "source": [ "obj-1", 2 ]
                }
            },
            {
                "patchline": {
                    "destination": [ "obj-50", 1 ],
                    "source": [ "obj-1", 1 ]
                }
            },
            {
                "patchline": {
                    "destination": [ "obj-50", 0 ],
                    "source": [ "obj-1", 0 ]
                }
            },
            {
                "patchline": {
                    "destination": [ "obj-30", 0 ],
                    "hidden": 1,
                    "source": [ "obj-11", 0 ]
                }
            },
            {
                "patchline": {
                    "destination": [ "obj-30", 0 ],
                    "hidden": 1,
                    "source": [ "obj-12", 0 ]
                }
            },
            {
                "patchline": {
                    "destination": [ "obj-11", 0 ],
                    "source": [ "obj-13", 0 ]
                }
            },
            {
                "patchline": {
                    "destination": [ "obj-30", 0 ],
                    "hidden": 1,
                    "source": [ "obj-14", 0 ]
                }
            },
            {
                "patchline": {
                    "destination": [ "obj-2", 0 ],
                    "hidden": 1,
                    "source": [ "obj-15", 0 ]
                }
            },
            {
                "patchline": {
                    "destination": [ "obj-1", 0 ],
                    "hidden": 1,
                    "source": [ "obj-16", 0 ]
                }
            },
            {
                "patchline": {
                    "destination": [ "obj-2", 0 ],
                    "hidden": 1,
                    "source": [ "obj-17", 0 ]
                }
            },
            {
                "patchline": {
                    "destination": [ "obj-2", 0 ],
                    "hidden": 1,
                    "source": [ "obj-18", 0 ]
                }
            },
            {
                "patchline": {
                    "destination": [ "obj-2", 0 ],
                    "hidden": 1,
                    "source": [ "obj-19", 0 ]
                }
            },
            {
                "patchline": {
                    "destination": [ "obj-54", 2 ],
                    "source": [ "obj-2", 2 ]
                }
            },
            {
                "patchline": {
                    "destination": [ "obj-54", 1 ],
                    "source": [ "obj-2", 1 ]
                }
            },
            {
                "patchline": {
                    "destination": [ "obj-54", 0 ],
                    "source": [ "obj-2", 0 ]
                }
            },
            {
                "patchline": {
                    "destination": [ "obj-20", 0 ],
                    "source": [ "obj-22", 0 ]
                }
            },
            {
                "patchline": {
                    "destination": [ "obj-1", 0 ],
                    "hidden": 1,
                    "source": [ "obj-23", 0 ]
                }
            },
            {
                "patchline": {
                    "destination": [ "obj-2", 0 ],
                    "hidden": 1,
                    "source": [ "obj-24", 0 ]
                }
            },
            {
                "patchline": {
                    "destination": [ "obj-30", 0 ],
                    "source": [ "obj-26", 0 ]
                }
            },
            {
                "patchline": {
                    "destination": [ "obj-30", 0 ],
                    "source": [ "obj-27", 0 ]
                }
            },
            {
                "patchline": {
                    "destination": [ "obj-30", 0 ],
                    "source": [ "obj-28", 0 ]
                }
            },
            {
                "patchline": {
                    "destination": [ "obj-30", 0 ],
                    "source": [ "obj-29", 0 ]
                }
            },
            {
                "patchline": {
                    "destination": [ "obj-30", 0 ],
                    "source": [ "obj-3", 0 ]
                }
            },
            {
                "patchline": {
                    "destination": [ "obj-1", 0 ],
                    "order": 1,
                    "source": [ "obj-30", 0 ]
                }
            },
            {
                "patchline": {
                    "destination": [ "obj-2", 0 ],
                    "order": 0,
                    "source": [ "obj-30", 0 ]
                }
            },
            {
                "patchline": {
                    "destination": [ "obj-30", 0 ],
                    "source": [ "obj-31", 0 ]
                }
            },
            {
                "patchline": {
                    "destination": [ "obj-2", 0 ],
                    "hidden": 1,
                    "source": [ "obj-32", 0 ]
                }
            },
            {
                "patchline": {
                    "destination": [ "obj-1", 0 ],
                    "hidden": 1,
                    "source": [ "obj-33", 0 ]
                }
            },
            {
                "patchline": {
                    "destination": [ "obj-2", 0 ],
                    "hidden": 1,
                    "source": [ "obj-34", 0 ]
                }
            },
            {
                "patchline": {
                    "destination": [ "obj-1", 0 ],
                    "hidden": 1,
                    "source": [ "obj-35", 0 ]
                }
            },
            {
                "patchline": {
                    "destination": [ "obj-30", 0 ],
                    "hidden": 1,
                    "source": [ "obj-38", 0 ]
                }
            },
            {
                "patchline": {
                    "destination": [ "obj-1", 0 ],
                    "hidden": 1,
                    "source": [ "obj-39", 0 ]
                }
            },
            {
                "patchline": {
                    "destination": [ "obj-30", 0 ],
                    "source": [ "obj-4", 0 ]
                }
            },
            {
                "patchline": {
                    "destination": [ "obj-1", 0 ],
                    "hidden": 1,
                    "source": [ "obj-40", 0 ]
                }
            },
            {
                "patchline": {
                    "destination": [ "obj-2", 0 ],
                    "hidden": 1,
                    "source": [ "obj-41", 0 ]
                }
            },
            {
                "patchline": {
                    "destination": [ "obj-2", 0 ],
                    "hidden": 1,
                    "source": [ "obj-44", 0 ]
                }
            },
            {
                "patchline": {
                    "destination": [ "obj-1", 0 ],
                    "order": 1,
                    "source": [ "obj-45", 0 ]
                }
            },
            {
                "patchline": {
                    "destination": [ "obj-2", 0 ],
                    "order": 0,
                    "source": [ "obj-45", 0 ]
                }
            },
            {
                "patchline": {
                    "destination": [ "obj-30", 0 ],
                    "source": [ "obj-5", 0 ]
                }
            },
            {
                "patchline": {
                    "destination": [ "obj-2", 0 ],
                    "hidden": 1,
                    "source": [ "obj-6", 0 ]
                }
            }
        ],
        "autosave": 0
    }
}