{
    "patcher": {
        "fileversion": 1,
        "appversion": {
            "major": 9,
            "minor": 1,
            "revision": 0,
            "architecture": "x64",
            "modernui": 1
        },
        "classnamespace": "box",
        "rect": [ 261.0, 247.0, 676.0, 510.0 ],
        "subpatcher_template": "js_default",
        "boxes": [
            {
                "box": {
                    "id": "obj-8",
                    "maxclass": "textbutton",
                    "numinlets": 1,
                    "numoutlets": 3,
                    "outlettype": [ "", "", "int" ],
                    "parameter_enable": 0,
                    "patching_rect": [ 185.0, 67.875, 69.0, 19.75 ],
                    "text": "or folder"
                }
            },
            {
                "box": {
                    "id": "obj-3",
                    "maxclass": "newobj",
                    "numinlets": 1,
                    "numoutlets": 2,
                    "outlettype": [ "", "bang" ],
                    "patching_rect": [ 185.0, 94.0, 90.0, 22.0 ],
                    "text": "opendialog fold"
                }
            },
            {
                "box": {
                    "id": "obj-27",
                    "maxclass": "newobj",
                    "numinlets": 2,
                    "numoutlets": 2,
                    "outlettype": [ "", "" ],
                    "patching_rect": [ 288.0, 124.0, 59.0, 22.0 ],
                    "text": "route text"
                }
            },
            {
                "box": {
                    "id": "obj-26",
                    "keymode": 1,
                    "lines": 1,
                    "maxclass": "textedit",
                    "numinlets": 1,
                    "numoutlets": 4,
                    "outlettype": [ "", "int", "", "" ],
                    "outputmode": 1,
                    "parameter_enable": 0,
                    "patching_rect": [ 288.0, 92.5, 137.0, 25.0 ],
                    "text": "my recordings.zip"
                }
            },
            {
                "box": {
                    "id": "obj-25",
                    "maxclass": "textbutton",
                    "numinlets": 1,
                    "numoutlets": 3,
                    "outlettype": [ "", "", "int" ],
                    "parameter_enable": 0,
                    "patching_rect": [ 474.63, 66.35, 100.0, 20.0 ],
                    "text": "3) zip it"
                }
            },
            {
                "box": {
                    "id": "obj-24",
                    "maxclass": "newobj",
                    "numinlets": 3,
                    "numoutlets": 1,
                    "outlettype": [ "" ],
                    "patching_rect": [ 141.0, 148.0, 71.0, 22.0 ],
                    "text": "pack zip s s"
                }
            },
            {
                "box": {
                    "id": "obj-23",
                    "maxclass": "textbutton",
                    "numinlets": 1,
                    "numoutlets": 3,
                    "outlettype": [ "", "", "int" ],
                    "parameter_enable": 0,
                    "patching_rect": [ 288.0, 67.5, 170.0, 18.5 ],
                    "text": "2) select destination .zip"
                }
            },
            {
                "box": {
                    "id": "obj-22",
                    "maxclass": "textbutton",
                    "numinlets": 1,
                    "numoutlets": 3,
                    "outlettype": [ "", "", "int" ],
                    "parameter_enable": 0,
                    "patching_rect": [ 102.0, 67.5, 81.0, 20.5 ],
                    "text": "1) select file"
                }
            },
            {
                "box": {
                    "id": "obj-12",
                    "maxclass": "newobj",
                    "numinlets": 1,
                    "numoutlets": 2,
                    "outlettype": [ "", "bang" ],
                    "patching_rect": [ 102.0, 93.5, 81.0, 22.0 ],
                    "text": "opendialog"
                }
            },
            {
                "box": {
                    "id": "obj-10",
                    "maxclass": "newobj",
                    "numinlets": 1,
                    "numoutlets": 0,
                    "patching_rect": [ 78.0, 378.0, 74.0, 22.0 ],
                    "text": "print zipped!"
                }
            },
            {
                "box": {
                    "fontface": 0,
                    "format": [ 1, "%" ],
                    "id": "obj-7",
                    "ignoreclick": 1,
                    "maxclass": "ll_number",
                    "numinlets": 1,
                    "numoutlets": 1,
                    "outlettype": [ "" ],
                    "parameter_enable": 0,
                    "patching_rect": [ 185.0, 378.0, 208.0, 22.0 ],
                    "slidermax": 100.0,
                    "sliderstyle": 0
                }
            },
            {
                "box": {
                    "id": "obj-5",
                    "maxclass": "newobj",
                    "numinlets": 3,
                    "numoutlets": 3,
                    "outlettype": [ "", "", "" ],
                    "patching_rect": [ 78.0, 342.0, 233.0, 22.0 ],
                    "text": "route done progress"
                }
            },
            {
                "box": {
                    "id": "obj-6",
                    "linecount": 3,
                    "maxclass": "comment",
                    "numinlets": 1,
                    "numoutlets": 0,
                    "patching_rect": [ 329.0, 233.0, 150.0, 47.0 ],
                    "text": "if $dest is not a path, the zip will be created in the same directory as $src"
                }
            },
            {
                "box": {
                    "id": "obj-4",
                    "maxclass": "comment",
                    "numinlets": 1,
                    "numoutlets": 0,
                    "patching_rect": [ 134.0, 308.0, 150.0, 20.0 ],
                    "text": "zip $src $dest"
                }
            },
            {
                "box": {
                    "id": "obj-2",
                    "maxclass": "message",
                    "numinlets": 2,
                    "numoutlets": 1,
                    "outlettype": [ "" ],
                    "patching_rect": [ 156.0, 205.0, 323.0, 22.0 ],
                    "text": "zip Usermax:/Library/ppooll_presets ppooll_presets_old.zip"
                }
            },
            {
                "box": {
                    "id": "obj-1",
                    "maxclass": "newobj",
                    "numinlets": 1,
                    "numoutlets": 1,
                    "outlettype": [ "" ],
                    "patching_rect": [ 78.0, 307.0, 36.0, 22.0 ],
                    "text": "ll_zip"
                }
            }
        ],
        "lines": [
            {
                "patchline": {
                    "destination": [ "obj-5", 0 ],
                    "source": [ "obj-1", 0 ]
                }
            },
            {
                "patchline": {
                    "destination": [ "obj-24", 1 ],
                    "source": [ "obj-12", 0 ]
                }
            },
            {
                "patchline": {
                    "destination": [ "obj-1", 0 ],
                    "source": [ "obj-2", 0 ]
                }
            },
            {
                "patchline": {
                    "destination": [ "obj-12", 0 ],
                    "source": [ "obj-22", 0 ]
                }
            },
            {
                "patchline": {
                    "destination": [ "obj-26", 0 ],
                    "source": [ "obj-23", 0 ]
                }
            },
            {
                "patchline": {
                    "destination": [ "obj-1", 0 ],
                    "order": 1,
                    "source": [ "obj-24", 0 ]
                }
            },
            {
                "patchline": {
                    "destination": [ "obj-2", 1 ],
                    "order": 0,
                    "source": [ "obj-24", 0 ]
                }
            },
            {
                "patchline": {
                    "destination": [ "obj-24", 0 ],
                    "source": [ "obj-25", 0 ]
                }
            },
            {
                "patchline": {
                    "destination": [ "obj-27", 0 ],
                    "source": [ "obj-26", 0 ]
                }
            },
            {
                "patchline": {
                    "destination": [ "obj-24", 2 ],
                    "source": [ "obj-27", 0 ]
                }
            },
            {
                "patchline": {
                    "destination": [ "obj-24", 1 ],
                    "source": [ "obj-3", 0 ]
                }
            },
            {
                "patchline": {
                    "destination": [ "obj-10", 0 ],
                    "source": [ "obj-5", 0 ]
                }
            },
            {
                "patchline": {
                    "destination": [ "obj-7", 0 ],
                    "source": [ "obj-5", 1 ]
                }
            },
            {
                "patchline": {
                    "destination": [ "obj-3", 0 ],
                    "source": [ "obj-8", 0 ]
                }
            }
        ],
        "autosave": 0
    }
}